<svg xmlns="http://www.w3.org/2000/svg" version="1.1" xmlns:xlink="http://www.w3.org/1999/xlink" xmlns:svgjs="http://svgjs.com/svgjs" width="512" height="512" x="0" y="0" viewBox="0 0 512 512" style="enable-background:new 0 0 512 512" xml:space="preserve" class=""><g><g><path d="m212 208.438h15v60h30v-60-30-60h-30v60h-15v-60h-30v60 30 60h30z" fill="#66ccff" data-original="#66ccff" class=""></path><g fill="#59abff"><path d="m332 238.438h-30v-30h30v-30h-30v-30h30v-30h-60v60 30 60h60z" fill="#59abff" data-original="#59abff"></path><path d="m407 238.438h-30v-120h-30v150h60z" fill="#59abff" data-original="#59abff"></path><path d="m467 208.438c24.813 0 45-20.187 45-45s-20.187-45-45-45h-30v60 30 60h30zm0-60c8.271 0 15 6.729 15 15s-6.729 15-15 15z" fill="#59abff" data-original="#59abff"></path></g><path d="m92 298.438v150h30c24.813 0 45-20.187 45-45v-60c0-24.813-20.187-45-45-45zm45 45v60c0 8.271-6.729 15-15 15v-90c8.271 0 15 6.729 15 15z" fill="#5c7199" data-original="#5c7199"></path><path d="m242 418.438h-30v-30h30v-30h-30v-30h30v-30h-60v60 30 60h60z" fill="#5c7199" data-original="#5c7199"></path><path d="m302 388.438c8.271 0 15 6.729 15 15s-6.729 15-15 15c-4.007 0-7.773-1.56-10.606-4.393l-10.606-10.607-21.213 21.213 10.606 10.606c8.499 8.5 19.8 13.18 31.819 13.18 24.813 0 45-20.187 45-45s-20.187-45-45-45c-8.271 0-15-6.729-15-15s6.729-15 15-15c4.007 0 7.773 1.56 10.606 4.393l10.606 10.607 21.213-21.213-10.606-10.606c-8.499-8.5-19.8-13.18-31.819-13.18-24.813 0-45 20.187-45 45s20.187 45 45 45z" fill="#4d5680" data-original="#4d5680" class=""></path><path d="m392 298.438h-30v60 30 60h30v-41.459l23.292 46.583 26.833-13.416-33.354-66.708 33.354-66.708-26.833-13.417-23.292 46.584z" fill="#4d5680" data-original="#4d5680" class=""></path><path d="m60 208.438v-30h-30v-45c0-24.813 20.187-45 45-45s45 20.187 45 45v45h-30v30h30v15c0 8.271-6.729 15-15 15h-45v30h45c24.813 0 45-20.187 45-45v-15-30-45c0-41.355-33.645-75-75-75s-75 33.645-75 75v45 30h30z" fill="#5c7199" data-original="#5c7199"></path></g></g></svg>